<svg width="28" height="28" viewBox="0 0 28 28" fill="none" xmlns="http://www.w3.org/2000/svg">
<g clip-path="url(#clip0_1533_5679)">
<path fill-rule="evenodd" clip-rule="evenodd" d="M14.0001 22.0956C16.5774 22.0956 18.6667 20.0063 18.6667 17.4289C18.6667 14.8516 16.5774 12.7623 14.0001 12.7623C11.4228 12.7623 9.33342 14.8516 9.33342 17.4289C9.33342 20.0063 11.4228 22.0956 14.0001 22.0956ZM14.0001 19.7623C15.2887 19.7623 16.3334 18.7176 16.3334 17.4289C16.3334 16.1403 15.2887 15.0956 14.0001 15.0956C12.7114 15.0956 11.6667 16.1403 11.6667 17.4289C11.6667 18.7176 12.7114 19.7623 14.0001 19.7623Z" fill="white"/>
<path d="M14.0001 10.5514C15.2887 10.5514 16.3334 9.50675 16.3334 8.21809C16.3334 6.92942 15.2887 5.88476 14.0001 5.88476C12.7114 5.88476 11.6667 6.92942 11.6667 8.21809C11.6667 9.50675 12.7114 10.5514 14.0001 10.5514Z" fill="white"/>
<path fill-rule="evenodd" clip-rule="evenodd" d="M8.16675 1.16675C6.23375 1.16675 4.66675 2.73375 4.66675 4.66675V23.3334C4.66675 25.2664 6.23375 26.8334 8.16675 26.8334H19.8334C21.7664 26.8334 23.3334 25.2664 23.3334 23.3334V4.66675C23.3334 2.73375 21.7664 1.16675 19.8334 1.16675H8.16675ZM19.8334 3.50008H8.16675C7.52242 3.50008 7.00008 4.02242 7.00008 4.66675V23.3334C7.00008 23.9777 7.52242 24.5001 8.16675 24.5001H19.8334C20.4777 24.5001 21.0001 23.9777 21.0001 23.3334V4.66675C21.0001 4.02242 20.4777 3.50008 19.8334 3.50008Z" fill="white"/>
</g>
<defs>
<clipPath id="clip0_1533_5679">
<rect width="28" height="28" fill="white"/>
</clipPath>
</defs>
</svg>
