<svg width="26" height="26" viewBox="0 0 26 26" fill="none" xmlns="http://www.w3.org/2000/svg">
<path d="M13.0002 2.16663L13.1269 2.17421C13.3687 2.20273 13.5939 2.31188 13.7661 2.48405C13.9382 2.65623 14.0474 2.88139 14.0759 3.12321L14.0835 3.24996V7.58329L14.0889 7.74579C14.1277 8.26164 14.3497 8.7466 14.7149 9.11299C15.0801 9.47938 15.5644 9.70301 16.0801 9.74346L16.2502 9.74996H20.5835L20.7102 9.75754C20.9521 9.78606 21.1772 9.89521 21.3494 10.0674C21.5216 10.2396 21.6307 10.4647 21.6592 10.7065L21.6668 10.8333V20.5833C21.6669 21.4123 21.3501 22.2099 20.7814 22.8131C20.2127 23.4162 19.435 23.7792 18.6075 23.8279L18.4168 23.8333H7.5835C6.75452 23.8333 5.95685 23.5166 5.35371 22.9479C4.75057 22.3792 4.38755 21.6015 4.33891 20.774L4.3335 20.5833V5.41663C4.33345 4.58765 4.65018 3.78998 5.21889 3.18684C5.78759 2.5837 6.56528 2.22068 7.39283 2.17204L7.5835 2.16663H13.0002ZM16.2502 17.3333H9.75016C9.46284 17.3333 9.1873 17.4474 8.98413 17.6506C8.78097 17.8538 8.66683 18.1293 8.66683 18.4166C8.66683 18.7039 8.78097 18.9795 8.98413 19.1827C9.1873 19.3858 9.46284 19.5 9.75016 19.5H16.2502C16.5375 19.5 16.813 19.3858 17.0162 19.1827C17.2194 18.9795 17.3335 18.7039 17.3335 18.4166C17.3335 18.1293 17.2194 17.8538 17.0162 17.6506C16.813 17.4474 16.5375 17.3333 16.2502 17.3333ZM16.2502 13H9.75016C9.46284 13 9.1873 13.1141 8.98413 13.3173C8.78097 13.5204 8.66683 13.796 8.66683 14.0833C8.66683 14.3706 8.78097 14.6462 8.98413 14.8493C9.1873 15.0525 9.46284 15.1666 9.75016 15.1666H16.2502C16.5375 15.1666 16.813 15.0525 17.0162 14.8493C17.2194 14.6462 17.3335 14.3706 17.3335 14.0833C17.3335 13.796 17.2194 13.5204 17.0162 13.3173C16.813 13.1141 16.5375 13 16.2502 13Z" fill="black"/>
<path d="M20.5834 7.58332H16.2501L16.249 3.2489L20.5834 7.58332Z" fill="black"/>
</svg>
