<svg width="26" height="26" viewBox="0 0 26 26" fill="none" xmlns="http://www.w3.org/2000/svg">
<path d="M14.0832 17.3333H3.24984C2.96252 17.3333 2.68697 17.4475 2.4838 17.6506C2.28064 17.8538 2.1665 18.1293 2.1665 18.4167C2.1665 18.704 2.28064 18.9795 2.4838 19.1827C2.68697 19.3859 2.96252 19.5 3.24984 19.5H14.0832C14.3705 19.5 14.646 19.3859 14.8492 19.1827C15.0524 18.9795 15.1665 18.704 15.1665 18.4167C15.1665 18.1293 15.0524 17.8538 14.8492 17.6506C14.646 17.4475 14.3705 17.3333 14.0832 17.3333ZM3.24984 8.66667H22.7498C23.0372 8.66667 23.3127 8.55253 23.5159 8.34937C23.719 8.1462 23.8332 7.87065 23.8332 7.58333C23.8332 7.29602 23.719 7.02047 23.5159 6.8173C23.3127 6.61414 23.0372 6.5 22.7498 6.5H3.24984C2.96252 6.5 2.68697 6.61414 2.4838 6.8173C2.28064 7.02047 2.1665 7.29602 2.1665 7.58333C2.1665 7.87065 2.28064 8.1462 2.4838 8.34937C2.68697 8.55253 2.96252 8.66667 3.24984 8.66667ZM22.7498 11.9167H3.24984C2.96252 11.9167 2.68697 12.0308 2.4838 12.234C2.28064 12.4371 2.1665 12.7127 2.1665 13C2.1665 13.2873 2.28064 13.5629 2.4838 13.766C2.68697 13.9692 2.96252 14.0833 3.24984 14.0833H22.7498C23.0372 14.0833 23.3127 13.9692 23.5159 13.766C23.719 13.5629 23.8332 13.2873 23.8332 13C23.8332 12.7127 23.719 12.4371 23.5159 12.234C23.3127 12.0308 23.0372 11.9167 22.7498 11.9167Z" fill="black"/>
</svg>
